<svg width="1920" height="2392" viewBox="0 0 1920 2392" fill="none" xmlns="http://www.w3.org/2000/svg">
<mask id="mask0_1_221" style="mask-type:alpha" maskUnits="userSpaceOnUse" x="0" y="0" width="1920" height="2392">
<rect width="1920" height="2392" fill="url(#paint0_linear_1_221)" fill-opacity="0.4"/>
<rect width="1920" height="2392" fill="url(#paint1_linear_1_221)" fill-opacity="0.4"/>
</mask>
<g mask="url(#mask0_1_221)">
<path d="M843 133.893C582.2 -115.652 171.667 79.7008 -1 208.57V2186.14C101.333 2515.96 389.4 2816.66 723 2420.87C1056.6 2025.08 1660 2164.17 1920 2283.19V-3.01428C1669.67 146.599 1103.8 383.439 843 133.893Z" fill="black"/>
<path d="M843 133.893C582.2 -115.652 171.667 79.7008 -1 208.57V2186.14C101.333 2515.96 389.4 2816.66 723 2420.87C1056.6 2025.08 1660 2164.17 1920 2283.19V-3.01428C1669.67 146.599 1103.8 383.439 843 133.893Z" fill="url(#paint2_radial_1_221)"/>
<path d="M843 133.893C582.2 -115.652 171.667 79.7008 -1 208.57V2186.14C101.333 2515.96 389.4 2816.66 723 2420.87C1056.6 2025.08 1660 2164.17 1920 2283.19V-3.01428C1669.67 146.599 1103.8 383.439 843 133.893Z" fill="url(#paint3_radial_1_221)"/>
<path d="M843 133.893C582.2 -115.652 171.667 79.7008 -1 208.57V2186.14C101.333 2515.96 389.4 2816.66 723 2420.87C1056.6 2025.08 1660 2164.17 1920 2283.19V-3.01428C1669.67 146.599 1103.8 383.439 843 133.893Z" fill="url(#paint4_radial_1_221)"/>
<path d="M843 133.893C582.2 -115.652 171.667 79.7008 -1 208.57V2186.14C101.333 2515.96 389.4 2816.66 723 2420.87C1056.6 2025.08 1660 2164.17 1920 2283.19V-3.01428C1669.67 146.599 1103.8 383.439 843 133.893Z" fill="url(#paint5_radial_1_221)"/>
</g>
<defs>
<linearGradient id="paint0_linear_1_221" x1="1092" y1="2392" x2="1523.8" y2="390.678" gradientUnits="userSpaceOnUse">
<stop stop-opacity="0"/>
<stop offset="0.26948"/>
<stop offset="0.714659"/>
<stop offset="1" stop-opacity="0"/>
</linearGradient>
<linearGradient id="paint1_linear_1_221" x1="868" y1="1843.02" x2="277.506" y2="789.599" gradientUnits="userSpaceOnUse">
<stop stop-opacity="0"/>
<stop offset="0.26948"/>
<stop offset="0.714659"/>
<stop offset="0.97101" stop-opacity="0"/>
</linearGradient>
<radialGradient id="paint2_radial_1_221" cx="0" cy="0" r="1" gradientUnits="userSpaceOnUse" gradientTransform="translate(21 1518) rotate(-83.1384) scale(2644.97 2211.02)">
<stop stop-color="#DEFF13"/>
<stop offset="1" stop-color="#747474" stop-opacity="0"/>
</radialGradient>
<radialGradient id="paint3_radial_1_221" cx="0" cy="0" r="1" gradientUnits="userSpaceOnUse" gradientTransform="translate(153 -82.5707) rotate(58.7958) scale(2810.32 2685.21)">
<stop stop-color="#F10979"/>
<stop offset="1" stop-color="#EC579F" stop-opacity="0"/>
</radialGradient>
<radialGradient id="paint4_radial_1_221" cx="0" cy="0" r="1" gradientUnits="userSpaceOnUse" gradientTransform="translate(803.5 1351.5) rotate(110.333) scale(1215.92 1194.91)">
<stop stop-color="#0E68BC"/>
<stop offset="1" stop-color="#1149D9" stop-opacity="0"/>
</radialGradient>
<radialGradient id="paint5_radial_1_221" cx="0" cy="0" r="1" gradientUnits="userSpaceOnUse" gradientTransform="translate(2793.5 1759.5) rotate(-145.325) scale(2315.81 2131.1)">
<stop stop-color="#03F6BB"/>
<stop offset="1" stop-color="#0FFED3" stop-opacity="0"/>
</radialGradient>
</defs>
</svg>
