<svg width="302" height="336" viewBox="0 0 302 336" fill="none" xmlns="http://www.w3.org/2000/svg">
<g clip-path="url(#clip0_8_23)">
<path d="M262.8 164.35C249.38 242.15 186.36 281.13 181.01 284.32C163.16 295.32 150.4 301.42 131.43 307.08C122.87 309.63 118.33 317.19 119.52 322.42C119.54 322.51 119.57 322.6 119.6 322.69L119.58 322.71C122.16 338.27 161.3 348.57 215.02 292.84C268.22 237.64 262.91 165.75 262.8 164.36V164.35Z" fill="white"/>
<path d="M248 160.32C253.15 145.67 257.25 125.68 259.35 111.32C261.63 111.54 301.32 124.2 301.32 124.2L246.04 0L157.5 111.77L206.46 104.71C201.2 166.73 160.18 246.56 88.08 236.08C66.78 232.75 48.95 218.46 41.21 199.92C29.29 171.34 35.21 141.26 50.25 115.35C52.19 128.45 59.06 148.3 82.05 159.05C114.23 174.09 140.39 152.2 143.79 143.09C115.2 157.59 97.41 137.37 97.41 137.37C92.5 132.18 88.8 125.3 87.2 117.73C86.42 113 82.91 93.63 97.95 73.09C115.46 51.11 143.43 43.93 168.64 43.12L181.98 27.4C157 24.93 131.2 29.19 107.71 37.81C47.05 61.19 -4.19003 118.75 0.269971 186.11C3.25997 250.39 57.3 290.64 119.9 283.03C183.78 274.83 229.11 218.38 247.99 160.32H248Z" fill="white"/>
</g>
<defs>
<clipPath id="clip0_8_23">
<rect width="301.31" height="335.02" fill="white"/>
</clipPath>
</defs>
</svg>
