<svg width="21" height="20" viewBox="0 0 21 20" fill="none" xmlns="http://www.w3.org/2000/svg">
<path d="M16.1904 19.4997C16.0305 19.5004 15.8727 19.4626 15.7304 19.3897L10.6304 16.7197L5.53038 19.3897C5.36477 19.4768 5.17805 19.5157 4.99145 19.5019C4.80485 19.4882 4.62586 19.4223 4.47481 19.3119C4.32376 19.2015 4.20672 19.0509 4.13699 18.8773C4.06727 18.7036 4.04765 18.5139 4.08038 18.3297L5.08038 12.6997L0.960378 8.69972C0.831835 8.57144 0.740649 8.41058 0.696606 8.23441C0.652562 8.05823 0.657323 7.87339 0.710378 7.69972C0.768338 7.52199 0.874954 7.36407 1.01813 7.24387C1.1613 7.12368 1.3353 7.04602 1.52038 7.01972L7.22038 6.18972L9.73038 1.05972C9.81226 0.890644 9.94011 0.748058 10.0993 0.648289C10.2585 0.548521 10.4425 0.495605 10.6304 0.495605C10.8182 0.495605 11.0023 0.548521 11.1615 0.648289C11.3206 0.748058 11.4485 0.890644 11.5304 1.05972L14.0704 6.17972L19.7704 7.00972C19.9555 7.03602 20.1295 7.11368 20.2726 7.23387C20.4158 7.35407 20.5224 7.51199 20.5804 7.68972C20.6334 7.86339 20.6382 8.04823 20.5942 8.22441C20.5501 8.40058 20.4589 8.56144 20.3304 8.68972L16.2104 12.6897L17.2104 18.3197C17.2461 18.5072 17.2274 18.701 17.1565 18.8782C17.0856 19.0554 16.9655 19.2086 16.8104 19.3197C16.6293 19.4466 16.4113 19.5099 16.1904 19.4997Z" fill="white"/>
</svg>
